# xmcd CD database file
#
# Track frame offsets:
#	150
#	17407
#	32932
#	45145
#	50800
#	60670
#	66522
#	81062
#	94047
#	108090
#	120077
#	139230
#	149240
#	161807
#	175325
#	187717
#	201227
#	213830
#	225842
#	239975
#	254190
#	268767
#
# Disc length: 3750 seconds
#
# Revision: 2
# Processed by: cddbd v1.5.2PL0 Copyright (c) Steve Scherf et al.
# Submitted via: CDex 1.51
#
DISCID=3f0ea416
DTITLE=Hoagy Carmichael - Vol. 192 - 'StarDust'' 1927-1960
DYEAR=1995
DGENRE=Jazz
TTITLE0=Stardust
TTITLE1=Rockin' Chair
TTITLE2=Come Easy, Go Easy Love
TTITLE3=Ginger and Spice
TTITLE4=Sleepy Time Gal 
TTITLE5=Billy-A-Dick
TTITLE6=Lazy River
TTITLE7=Bessie Couldn't Help It
TTITLE8=Georgia on My Mind
TTITLE9=March of the Hoodlums
TTITLE10=Washboard Blues
TTITLE11=Hong Kong Blues
TTITLE12=Cosmics
TTITLE13=LazyBones
TTITLE14=Snowball
TTITLE15=Judy
TTITLE16=Sing It Way Down Low
TTITLE17=One Morning in May
TTITLE18=One Night in Havana
TTITLE19=So Tired 
TTITLE20=Moon Country
TTITLE21=Barnacle Bill the Sailor
EXTD=YEAR: 1995
EXTT0=
EXTT1=
EXTT2=
EXTT3=
EXTT4=
EXTT5=
EXTT6=
EXTT7=
EXTT8=
EXTT9=
EXTT10=
EXTT11=
EXTT12=
EXTT13=
EXTT14=
EXTT15=
EXTT16=
EXTT17=
EXTT18=
EXTT19=
EXTT20=
EXTT21=
PLAYORDER=
